<svg xmlns="http://www.w3.org/2000/svg" viewBox="0 0 256 256">
  <defs>
    <linearGradient id="bg" x1="28" y1="18" x2="228" y2="238" gradientUnits="userSpaceOnUse">
      <stop offset="0" stop-color="#FFFFFF"/>
      <stop offset="0.52" stop-color="#F4F7FF"/>
      <stop offset="1" stop-color="#E8EEFF"/>
    </linearGradient>
    <radialGradient id="sheen" cx="0.32" cy="0.16" r="0.95">
      <stop offset="0" stop-color="#ffffff" stop-opacity="0.72"/>
      <stop offset="0.32" stop-color="#ffffff" stop-opacity="0.22"/>
      <stop offset="0.65" stop-color="#ffffff" stop-opacity="0.06"/>
      <stop offset="1" stop-color="#ffffff" stop-opacity="0"/>
    </radialGradient>
    <linearGradient id="glass" x1="40" y1="34" x2="192" y2="212" gradientUnits="userSpaceOnUse">
      <stop offset="0" stop-color="#ffffff" stop-opacity="0.42"/>
      <stop offset="0.45" stop-color="#ffffff" stop-opacity="0.12"/>
      <stop offset="1" stop-color="#ffffff" stop-opacity="0.02"/>
    </linearGradient>
    <clipPath id="clip"><rect x="20" y="20" width="216" height="216" rx="52"/></clipPath>
  </defs>
  <g clip-path="url(#clip)">
    <rect x="20" y="20" width="216" height="216" rx="52" fill="url(#bg)"/>
    <ellipse cx="104" cy="70" rx="104" ry="60" fill="url(#sheen)"/>
    <path d="M42 38h172c10 0 18 8 18 18v34c-18-14-40-21-68-21H42V38z" fill="#ffffff" fill-opacity="0.16"/>
    <rect x="34" y="34" width="188" height="188" rx="44" fill="url(#glass)"/>
    <path d="M48 198c31 12 64 18 98 18 36 0 67-7 97-20v40H34v-20c3-8 7-13 14-18z" fill="#000000" fill-opacity="0.06"/>
    
    <g transform="translate(0 1)">
      <circle cx="128" cy="128" r="22" fill="#FFD64E"/>
      <g opacity="0.96">
        <ellipse cx="128" cy="84" rx="18" ry="36" fill="#FF6B7D" transform="rotate(0 128 84)"/>
        <ellipse cx="166" cy="98" rx="18" ry="36" fill="#FF9B3D" transform="rotate(45 166 98)"/>
        <ellipse cx="172" cy="138" rx="18" ry="36" fill="#FFD64E" transform="rotate(90 172 138)"/>
        <ellipse cx="152" cy="172" rx="18" ry="36" fill="#57D57D" transform="rotate(135 152 172)"/>
        <ellipse cx="106" cy="174" rx="18" ry="36" fill="#42C8F8" transform="rotate(180 106 174)"/>
        <ellipse cx="84" cy="138" rx="18" ry="36" fill="#5A89FF" transform="rotate(225 84 138)"/>
        <ellipse cx="90" cy="98" rx="18" ry="36" fill="#9D6CFF" transform="rotate(315 90 98)"/>
        <ellipse cx="128" cy="84" rx="18" ry="36" fill="#FF5B9A" transform="rotate(360 128 84)" opacity="0.55"/>
      </g>
    </g>
        
    <rect x="20.75" y="20.75" width="214.5" height="214.5" rx="51.25" fill="none" stroke="#ffffff" stroke-opacity="0.22" stroke-width="1.5"/>
  </g>
</svg>
